<svg width="61" height="66" viewBox="0 0 61 66" fill="none" xmlns="http://www.w3.org/2000/svg">
<g clip-path="url(#clip0_1_142)">
<path d="M56.42 52.7473C55.9677 56.1092 53.7053 59.0183 50.5379 60.3111C48.9863 60.9568 47.3059 61.1513 45.6249 60.9568C44.0092 60.7632 42.3929 60.2459 40.7124 59.2773C38.3851 57.983 36.058 55.9801 33.3432 53.0063C37.6098 47.7704 40.1947 42.9868 41.1648 38.7212C41.6174 36.717 41.6818 34.9069 41.4882 33.226C41.2299 31.6102 40.648 30.1229 39.7426 28.8303C37.7387 25.9217 34.3778 24.2408 30.6285 24.2408C26.8792 24.2408 23.518 25.9864 21.5141 28.8303C20.6087 30.1231 20.0277 31.6102 19.7687 33.226C19.5104 34.9069 19.5749 36.7815 20.0921 38.7214C21.0615 42.9866 23.7116 47.8351 27.9137 53.0701C25.2634 56.0445 22.8716 58.0482 20.5442 59.3412C18.8638 60.3111 17.2475 60.8283 15.6317 61.0215C13.966 61.2075 12.2801 60.9859 10.719 60.3758C7.55143 59.083 5.28948 56.173 4.83667 52.8118C4.64307 51.1962 4.77221 49.5805 5.41862 47.7704C5.61221 47.1235 5.93588 46.4783 6.25862 45.702C6.71143 44.6682 7.2287 43.5685 7.74526 42.4693L7.81041 42.3408C12.2701 32.7087 17.0539 22.8835 22.0314 13.317L22.2252 12.9284C22.7424 11.9598 23.259 10.9259 23.7767 9.95585C24.2935 8.92132 24.8753 7.95147 25.5861 7.11054C26.9436 5.55897 28.7537 4.71874 30.7576 4.71874C32.7615 4.71874 34.5714 5.55897 35.9288 7.11077C36.6399 7.95147 37.2217 8.92132 37.7389 9.95608C38.2562 10.9259 38.7728 11.9598 39.29 12.9284L39.4846 13.317C44.3968 22.948 49.1806 32.7732 53.6408 42.4053V42.4693C54.1581 43.5038 54.6102 44.6682 55.1274 45.702C55.4509 46.4783 55.7738 47.1233 55.9674 47.7704C56.4847 49.4508 56.6785 51.0676 56.4203 52.7473H56.42ZM30.6285 49.7089C27.1381 45.3139 24.8753 41.1765 24.0997 37.6869C23.777 36.1998 23.7116 34.9069 23.9061 33.7433C24.035 32.7087 24.4234 31.8033 24.9397 31.0271C26.1681 29.2833 28.2364 28.1825 30.6285 28.1825C33.0203 28.1825 35.1533 29.2177 36.3167 31.0271C36.8335 31.8033 37.2217 32.7087 37.3508 33.7433C37.5446 34.9069 37.4799 36.2642 37.157 37.6869C36.3814 41.1125 34.1188 45.2494 30.6285 49.7089ZM59.7814 46.348C59.4585 45.5722 59.135 44.7322 58.8121 44.0211C58.2948 42.8581 57.7775 41.7584 57.3249 40.7239L57.2603 40.6599C52.8006 30.9631 48.0167 21.1379 42.9746 11.4432L42.781 11.0541C42.2638 10.0845 41.7465 9.04999 41.2299 8.01593C40.5831 6.85179 39.9364 5.62483 38.9026 4.46046C36.8333 1.87483 33.8605 0.452881 30.6927 0.452881C27.4606 0.452881 24.5521 1.87483 22.4185 4.33179C21.4494 5.49499 20.7383 6.72311 20.0919 7.88749C19.5746 8.92132 19.0574 9.95585 18.5403 10.9259L18.3465 11.3126C13.3696 21.0087 8.52127 30.8347 4.06088 40.5308L3.99643 40.6599C3.54362 41.6937 3.02635 42.7923 2.50909 43.9566C2.16328 44.7227 1.84009 45.4989 1.53995 46.284C0.699243 48.6751 0.440962 50.938 0.763931 53.2646C1.47549 58.1129 4.70752 62.1858 9.16768 63.9952C10.8479 64.7068 12.5933 65.0298 14.4036 65.0298C14.9206 65.0298 15.5671 64.9651 16.0843 64.8999C18.2171 64.6409 20.4149 63.9312 22.5477 62.7024C25.1985 61.2158 27.7196 59.083 30.5635 55.9801C33.4074 59.083 35.9933 61.216 38.5789 62.7024C40.7124 63.9312 42.9099 64.6409 45.043 64.8999C45.5603 64.9651 46.2067 65.0298 46.7237 65.0298C48.5338 65.0298 50.3434 64.7068 51.9596 63.9952C56.4845 62.1858 59.6518 58.0484 60.3629 53.2646C60.8802 51.0017 60.6212 48.7405 59.7812 46.3477L59.7814 46.348Z" fill="#E0565B"/>
</g>
<defs>
<clipPath id="clip0_1_142">
<rect width="60" height="64.6875" fill="white" transform="translate(0.629517 0.452881)"/>
</clipPath>
</defs>
</svg>
