<svg width="61" height="72" viewBox="0 0 61 72" fill="none" xmlns="http://www.w3.org/2000/svg">
<g clip-path="url(#clip0_1_132)">
<path d="M18.8893 0.724277C18.5458 0.726489 18.2083 0.814207 17.9072 0.979511C16.9186 1.52748 16.5561 2.79756 17.1038 3.78545L19.3358 7.81576C13.9583 11.1427 10.395 16.8258 10.395 23.3122V24.5173C9.36216 23.329 7.84411 22.5788 6.14794 22.5788C3.04013 22.5788 0.516846 25.1021 0.516846 28.2097V45.5555C0.516846 48.6629 3.04036 51.1864 6.14794 51.1864C7.84411 51.1864 9.36216 50.4359 10.3948 49.2476V51.6774C10.3948 54.9533 13.0754 57.6336 16.3512 57.6336H17.8625V65.3499C17.8625 68.4577 20.386 70.981 23.4936 70.981C26.6011 70.981 29.1244 68.4575 29.1244 65.3499V57.6336H31.7391V65.3499C31.7391 68.4577 34.2626 70.981 37.3702 70.981C40.4778 70.981 43.0011 68.4575 43.0011 65.3499V57.6336H44.5125C47.7882 57.6336 50.4687 54.9533 50.4687 51.6774V49.2476C51.5014 50.4359 53.0197 51.1864 54.7158 51.1864C57.8234 51.1864 60.3467 48.6629 60.3467 45.5555V28.2097C60.3467 25.1021 57.8234 22.5788 54.7158 22.5788C53.0197 22.5788 51.5014 23.329 50.4687 24.5173V23.5161V23.4587C50.4692 23.3977 50.4687 23.349 50.4687 23.3122C50.4687 16.827 46.8973 11.1495 41.5217 7.82232L43.76 3.78545C44.3075 2.79756 43.9451 1.52748 42.9565 0.979511C42.6555 0.814207 42.318 0.726489 41.9745 0.724277C41.2444 0.717246 40.5279 1.10209 40.1506 1.78295L37.8101 6.01107C35.5217 5.16662 33.0317 4.70373 30.432 4.70373C27.8347 4.70373 25.34 5.1617 23.0534 6.00451L20.7132 1.78295C20.3356 1.10209 19.6193 0.717714 18.8893 0.724277Z" fill="white"/>
<path d="M6.14806 24.0455C3.82915 24.0455 1.98392 25.8908 1.98392 28.2097V45.5555C1.98392 47.8744 3.82915 49.7197 6.14806 49.7197C8.46696 49.7197 10.3124 47.8744 10.3124 45.5555V28.2097C10.3124 25.8908 8.46696 24.0455 6.14806 24.0455ZM54.7162 24.0455C52.397 24.0455 50.5518 25.8908 50.5518 28.2097V45.5555C50.5518 47.8744 52.397 49.7197 54.7162 49.7197C57.0351 49.7197 58.8803 47.8744 58.8803 45.5555V28.2097C58.8803 25.8908 57.0351 24.0455 54.7162 24.0455Z" fill="#A4C639"/>
<path d="M23.4938 43.8399C21.1749 43.8399 19.3295 45.6851 19.3295 48.0043V65.3499C19.3295 67.6688 21.1749 69.514 23.4938 69.514C25.8127 69.514 27.658 67.6688 27.658 65.3499V48.0043C27.658 45.6851 25.8127 43.8399 23.4938 43.8399ZM37.3705 43.8399C35.0513 43.8399 33.2061 45.6851 33.2061 48.0043V65.3499C33.2061 67.6688 35.0513 69.514 37.3705 69.514C39.6894 69.514 41.5346 67.6688 41.5346 65.3499V48.0043C41.5346 45.6851 39.6894 43.8399 37.3705 43.8399Z" fill="#A4C639"/>
<path d="M18.9018 2.19124C18.8034 2.19243 18.7068 2.21873 18.6213 2.26765C18.3243 2.43218 18.2268 2.77343 18.3916 3.07109L21.3253 8.37054C15.6815 11.3073 11.8692 16.888 11.8617 23.293H49.0019C48.9942 16.888 45.1821 11.307 39.5383 8.37054L42.4718 3.07132C42.6368 2.77367 42.539 2.43218 42.2421 2.26765C42.1566 2.2187 42.06 2.1924 41.9615 2.19124C41.7506 2.1889 41.5511 2.29437 41.4386 2.49734L38.4668 7.85398C36.0358 6.77585 33.3091 6.17046 30.4317 6.17046C27.5543 6.17046 24.8278 6.77562 22.3966 7.85398L19.4247 2.49734C19.374 2.40331 19.2985 2.32502 19.2063 2.27104C19.1141 2.21706 19.0089 2.18945 18.9021 2.19124H18.9018ZM11.8617 24.7597V51.6776C11.8604 52.2675 11.9757 52.8519 12.2009 53.3971C12.426 53.9424 12.7567 54.4378 13.1738 54.8549C13.5909 55.272 14.0864 55.6026 14.6316 55.8278C15.1769 56.0529 15.7612 56.1682 16.3511 56.1669H44.5125C45.1024 56.1682 45.6868 56.0529 46.232 55.8278C46.7773 55.6026 47.2727 55.272 47.6899 54.8548C48.107 54.4377 48.4377 53.9422 48.6628 53.397C48.888 52.8517 49.0032 52.2673 49.0019 51.6774V24.7599H11.8617V24.7597Z" fill="#A4C639"/>
<path d="M21.8608 13.3958C21.0131 13.3958 20.3112 14.0975 20.3112 14.9452C20.3112 15.7932 21.0131 16.4949 21.8608 16.4949C22.7088 16.4949 23.4105 15.7932 23.4105 14.9452C23.4105 14.0975 22.7088 13.3958 21.8608 13.3958ZM39.0026 13.3958C38.1546 13.3958 37.4529 14.0975 37.4529 14.9452C37.4529 15.7932 38.1546 16.4949 39.0026 16.4949C39.8503 16.4949 40.5522 15.7932 40.5522 14.9452C40.5522 14.0975 39.8503 13.3958 39.0026 13.3958Z" fill="white"/>
</g>
<defs>
<clipPath id="clip0_1_132">
<rect width="60" height="70.5469" fill="white" transform="translate(0.516846 0.523193)"/>
</clipPath>
</defs>
</svg>
