<svg width="73" height="61" viewBox="0 0 73 61" fill="none" xmlns="http://www.w3.org/2000/svg">
<g clip-path="url(#clip0_1_138)">
<path d="M36.6578 0.796631C17.3226 0.796631 2.17442 25.3966 0.741179 46.1741C6.80878 56.7045 21.4406 60.6628 36.6584 60.6628C51.875 60.6628 66.5077 56.7045 72.5722 46.1738C71.1386 25.3966 55.9924 0.796631 36.6581 0.796631" fill="#B6DEFF"/>
<path d="M67.5196 41.2248C67.5196 41.2248 63.2492 31.9921 58.9086 26.6056C54.5649 21.2169 49.2604 15.3493 46.1241 15.3493C42.9894 15.3493 34.2266 30.8642 30.2066 30.8642C26.1858 30.8642 24.0962 23.831 19.1528 23.831C14.2075 23.831 6.35056 40.7913 6.35056 40.7913L5.81817 43.6665C5.81817 43.6665 8.54775 55.7682 37.1038 55.7682C65.661 55.7682 67.9432 43.8651 67.9432 43.8651L67.5199 41.2245" fill="#66CC66"/>
<path d="M30.6542 37.4854C26.2193 37.4854 23.9457 33.1096 22.7131 30.4085C21.6046 27.9752 21.4128 24.1335 18.2677 24.0259C18.5767 23.9034 18.8742 23.831 19.1531 23.831C24.0964 23.831 26.186 30.8642 30.2069 30.8642C34.2269 30.8642 42.9897 15.349 46.1243 15.349C46.715 15.349 47.3804 15.5575 48.1024 15.9282C47.5683 15.8578 46.8835 15.9068 46.3559 16.4361C45.3426 17.4496 36.1446 37.4854 30.6542 37.4854Z" fill="#17AD49"/>
</g>
<defs>
<clipPath id="clip0_1_138">
<rect width="72.1127" height="60" fill="white" transform="translate(0.516846 0.796631)"/>
</clipPath>
</defs>
</svg>
