<svg width="30" height="31" viewBox="0 0 30 31" fill="none" xmlns="http://www.w3.org/2000/svg">
<path d="M12.5495 13.895C14.0285 16.355 13.811 19.25 12.042 20.42C10.273 21.56 7.634 20.495 6.1405 18.035C4.6615 15.575 4.8935 12.65 6.6625 11.51C8.4315 10.37 11.0705 11.435 12.5495 13.895ZM15 24.125C17.9 24.125 18.625 23 18.625 23C18.625 23 17.9 26 15 26C12.1 26 11.375 23.045 11.375 23C11.375 23 12.1 24.125 15 24.125ZM23.3375 11.51C25.1065 12.65 25.3385 15.575 23.8595 18.035C22.366 20.495 19.727 21.56 17.958 20.42C16.189 19.25 15.9715 16.355 17.4505 13.895C18.9295 11.435 21.5685 10.37 23.3375 11.51ZM15 27.5C18.625 27.5 26.6 19.79 26.6 14C26.6 8.21 21.3945 3.5 15 3.5C8.6055 3.5 3.4 8.21 3.4 14C3.4 19.79 11.375 27.5 15 27.5ZM15 0.5C22.975 0.5 29.5 6.56 29.5 14C29.5 20.12 21.264 30.5 15 30.5C8.736 30.5 0.5 20.12 0.5 14C0.5 6.56 7.025 0.5 15 0.5Z" fill="#02E4C0"/>
</svg>
