<svg width="42" height="20" viewBox="0 0 42 20" fill="none" xmlns="http://www.w3.org/2000/svg">
<path d="M32.275 0.50004C29.815 0.50004 27.4917 1.48889 25.8346 3.20171L13.825 14.2203C12.7317 15.3504 11.2796 15.9684 9.725 15.9684C6.53042 15.9684 3.91667 13.3021 3.91667 10C3.91667 6.69798 6.53042 4.03163 9.725 4.03163C11.2796 4.03163 12.7317 4.64966 13.8933 5.8504L15.8238 7.6162L18.4375 5.25003L16.2508 3.29C15.3953 2.40238 14.3782 1.69881 13.2581 1.21994C12.1379 0.741065 10.9371 0.496386 9.725 0.50004C4.63417 0.50004 0.5 4.77327 0.5 10C0.5 15.2268 4.63417 19.5 9.725 19.5C12.185 19.5 14.5083 18.5112 16.1654 16.7983L28.175 5.77977C29.2683 4.64966 30.7204 4.03163 32.275 4.03163C35.4696 4.03163 38.0833 6.69798 38.0833 10C38.0833 13.3021 35.4696 15.9684 32.275 15.9684C30.7375 15.9684 29.2683 15.3504 28.1067 14.1496L26.125 12.3662L23.5625 14.7324L25.7492 16.71C26.607 17.5932 27.625 18.2927 28.7448 18.7684C29.8646 19.2442 31.0643 19.4868 32.275 19.4823C37.3658 19.4823 41.5 15.2268 41.5 10C41.5 4.70263 37.3658 0.50004 32.275 0.50004Z" fill="#02E4C0"/>
</svg>
