<svg width="26" height="25" viewBox="0 0 26 25" fill="none" xmlns="http://www.w3.org/2000/svg">
<path d="M7.64636 14.1089L11.4197 10.3355L3.16636 2.09554C2.52636 1.45554 1.41969 1.62888 1.01969 2.45554C0.073024 4.44221 0.419691 6.88221 2.05969 8.53554L7.64636 14.1089ZM16.6864 11.6955C18.7264 12.6422 21.593 11.9755 23.713 9.85554C26.2597 7.30887 26.753 3.65554 24.793 1.69554C22.8464 -0.251124 19.193 0.228876 16.633 2.77554C14.513 4.89554 13.8464 7.76221 14.793 9.80221L2.71302 21.8822C2.46372 22.1315 2.32366 22.4696 2.32366 22.8222C2.32366 23.1748 2.46372 23.5129 2.71302 23.7622C2.96233 24.0115 3.30046 24.1516 3.65302 24.1516C4.00559 24.1516 4.34372 24.0115 4.59302 23.7622L12.8464 15.5355L21.0864 23.7755C21.2098 23.899 21.3563 23.9969 21.5176 24.0637C21.6789 24.1305 21.8518 24.1649 22.0264 24.1649C22.2009 24.1649 22.3738 24.1305 22.5351 24.0637C22.6964 23.9969 22.8429 23.899 22.9664 23.7755C23.0898 23.6521 23.1877 23.5055 23.2545 23.3443C23.3213 23.183 23.3557 23.0101 23.3557 22.8355C23.3557 22.661 23.3213 22.4881 23.2545 22.3268C23.1877 22.1655 23.0898 22.019 22.9664 21.8955L14.7264 13.6555L16.6864 11.6955Z" fill="#02E4C0"/>
</svg>
